<!--?xml version="1.0" encoding="utf-8"?-->
<!-- Svg Vector Icons : http://www.onlinewebfonts.com/icon -->

<svg version="1.1" xmlns="http://www.w3.org/2000/svg" xmlns:xlink="http://www.w3.org/1999/xlink" x="0px" y="0px" viewBox="0 0 256 256" enable-background="new 0 0 256 256" xml:space="preserve">
<metadata> Svg Vector Icons : http://www.onlinewebfonts.com/icon </metadata>
<g><g><g><path fill="#ffffff" data-title="Layer 0" xs="0" d="M134.8,37.5c-14.1,1-29,4.5-40.4,9.5c-17,7.5-33.8,21.1-39.1,31.6c-3.8,7.6-4.1,14.3-1,26.5c3.5,14.3,0.2,18.5-21.9,26.7c-10.6,3.9-15.4,6.4-18.5,9.3c-4.3,4.2-4.1,3.2-4,22.7l0.1,17.3l3,3.1c10.7,10.9,29.4,21,49.5,26.9c28.7,8.4,66.5,10,94,4.1c38.6-8.3,71-29.2,83.5-53.6c2-4,3.9-9,5-13.6c0.8-3.5,1.2-40.5,0.4-47.6c-1.4-13.5-6.1-23.6-15.3-32.7C209.9,47.6,170.4,35,134.8,37.5z M164.4,48.6c27.5,4.3,52.1,16.3,63.1,30.8c17.7,23.4,6.8,58.1-25.5,81c-18.4,13.1-42.3,21.4-70.7,24.5c-8.8,1-38,0.8-46-0.2c-19.3-2.5-34.1-6.5-45.5-12.2c-11.1-5.5-19.3-13.9-20.2-20.6c-0.2-1.4,0-2.1,0.8-3.2c1.3-1.6,7.8-4.8,16.5-8c12.5-4.6,18-7.7,22.8-12.8c3.1-3.2,5-6.9,5.8-10.9c0.7-3.7,0.3-7-1.5-14.2c-1.9-7.2-2.1-13.1-0.8-17c1.9-5.4,7.1-11.7,14.6-17.4c15.1-11.5,31.2-18,50.6-20.4C136.3,46.9,156.1,47.3,164.4,48.6z"/><path fill="#ffffff" data-title="Layer 1" xs="1" d="M141.3,60.5c-12.2,1-22.1,2.8-32.1,6.1c-16.5,5.5-27.3,12.1-31.1,19.2c-0.9,1.6-1.1,2.7-1.1,6.2c0,3.9,0.2,4.8,1.9,8.9c3.1,7.7,2.9,15.5-0.6,22.8c-4.1,8.6-10.6,13.2-26.7,18.6c-8.8,3-11.3,4.1-12.7,5.9c-2,2.5-0.7,6.3,3.7,10.4c16.1,14.9,69.7,20.2,110.6,11.1c37.5-8.4,64.6-31.4,67.8-57.5c1.2-9.2-1.4-19-7.1-27.4c-7.8-11.4-26.7-20.4-49.5-23.4C158.9,60.6,145.6,60.1,141.3,60.5z M165.2,75.6c2.2,1,2.4,2.3,1.3,6.7c-3,11.7-1.2,20.6,5.4,27.1c5,4.9,13.6,8.5,22.7,9.6c2.7,0.3,3,0.4,3.5,1.7c1.2,3.5-2.2,7.2-6.6,7.2c-2.7,0-3.7-0.5-6.8-3.3c-3.6-3.4-10.4-7.9-13.8-9.2c-1.8-0.7-3.9-1.1-5.9-1.2c-2.6,0-3.6,0.2-6.7,1.7c-4,1.9-9.8,6.4-13.1,10c-1.2,1.3-3,2.7-4,3.2c-3.2,1.3-7.1,0.1-8.6-2.7c-1-1.9-0.9-2.9,0.4-4.7c0.9-1.3,1.9-1.8,5.4-3c9.6-3.2,17.1-8,19-12.2c1.8-3.8,0.6-18.2-1.7-22.8c-1.5-3,0.2-5.9,4.6-7.9C162.3,74.9,163.7,74.8,165.2,75.6z"/></g></g></g>
</svg>